<svg width="687" height="88" viewBox="0 0 687 88" fill="none" xmlns="http://www.w3.org/2000/svg">
<path d="M21.375 87.875C17.7917 87.875 14.0417 87.4167 10.125 86.5C6.20833 85.5833 3.04167 84.4167 0.625 83L0 66.875L5.375 66.375L8.875 77.5C10.875 78.8333 13.0833 79.875 15.5 80.625C17.9167 81.2917 20.5 81.625 23.25 81.625C27.4167 81.625 30.7083 80.625 33.125 78.625C35.625 76.625 36.875 73.9167 36.875 70.5C36.875 67.5833 36 65.1667 34.25 63.25C32.5 61.25 30.2083 59.5417 27.375 58.125C24.625 56.7083 21.6667 55.2917 18.5 53.875C15.4167 52.4583 12.4583 50.875 9.625 49.125C6.875 47.2917 4.625 45.0833 2.875 42.5C1.125 39.8333 0.25 36.5417 0.25 32.625C0.25 28.5417 1.375 25 3.625 22C5.875 18.9167 9 16.5 13 14.75C17.0833 13 21.7083 12.125 26.875 12.125C29.0417 12.125 31.125 12.25 33.125 12.5C35.2083 12.6667 37.125 12.9583 38.875 13.375C40.625 13.7917 42.2083 14.3333 43.625 15L44.625 30.625L39.25 31.125L35.75 20.625C33.1667 18.9583 29.75 18.125 25.5 18.125C21.25 18.125 17.8333 19.1667 15.25 21.25C12.75 23.25 11.5 25.9583 11.5 29.375C11.5 32.375 12.375 34.875 14.125 36.875C15.9583 38.875 18.25 40.625 21 42.125C23.8333 43.625 26.7917 45.0833 29.875 46.5C33.0417 47.9167 36 49.5 38.75 51.25C41.5833 53 43.875 55.1667 45.625 57.75C47.4583 60.25 48.375 63.375 48.375 67.125C48.375 71.125 47.2083 74.7083 44.875 77.875C42.625 80.9583 39.4583 83.4167 35.375 85.25C31.2917 87 26.625 87.875 21.375 87.875ZM93.69 79C92.1067 81.75 89.94 83.9167 87.19 85.5C84.44 87 81.565 87.75 78.565 87.75C73.4817 87.75 69.315 86.2083 66.065 83.125C62.815 80.0417 61.19 75.4167 61.19 69.25L61.565 39.375H52.815V36.75L68.94 22.125H71.315L71.065 36.5L70.94 67.25C70.94 71.5833 71.8567 74.7917 73.69 76.875C75.6067 78.9583 78.2733 80 81.69 80C83.6067 80 85.3567 79.625 86.94 78.875C88.6067 78.125 90.1067 77.125 91.44 75.875L93.69 79ZM66.565 39.375V33.125H89.94V39.375H66.565ZM114.255 87.75C110.922 87.75 107.963 87.0833 105.38 85.75C102.797 84.4167 100.755 82.7083 99.255 80.625C97.8383 78.5417 97.13 76.375 97.13 74.125C97.13 71.2917 98.0467 68.9583 99.88 67.125C101.713 65.2917 104.713 63.7083 108.88 62.375L127.88 56V49.625C127.88 47.5417 127.255 45.6667 126.005 44C124.755 42.25 123.088 40.875 121.005 39.875C118.922 38.875 116.588 38.375 114.005 38.375C111.922 38.375 110.505 38.8333 109.755 39.75C109.005 40.5833 108.547 42.2917 108.38 44.875L108.13 50.125C105.13 50.7917 102.588 50.7083 100.505 49.875C98.4217 48.9583 97.38 47.5 97.38 45.5C97.38 44.0833 97.9633 42.6667 99.13 41.25C100.38 39.8333 102.005 38.5 104.005 37.25C106.005 35.9167 108.172 34.7917 110.505 33.875C112.838 32.9583 115.13 32.3333 117.38 32C123.547 32 128.463 33.625 132.13 36.875C135.88 40.125 137.797 44.375 137.88 49.625L137.63 70.625C137.63 72.2083 137.672 73.75 137.755 75.25C137.922 76.75 138.13 77.875 138.38 78.625L146.38 80.125V84L140.255 86.25C139.088 86.6667 138.005 87 137.005 87.25C136.005 87.5833 135.172 87.75 134.505 87.75C131.922 87.75 130.255 86.2917 129.505 83.375L128.13 78.5H130.005C127.255 81.5833 124.588 83.9167 122.005 85.5C119.505 87 116.922 87.75 114.255 87.75ZM117.63 80.375C119.547 80.375 121.338 79.9583 123.005 79.125C124.672 78.2083 126.297 76.8333 127.88 75V61.875L113.88 65.625C111.88 66.125 110.422 66.9167 109.505 68C108.672 69.0833 108.255 70.4583 108.255 72.125C108.255 74.2083 109.172 76.125 111.005 77.875C112.922 79.5417 115.13 80.375 117.63 80.375ZM156.32 83.375C156.403 80.4583 156.445 77.9167 156.445 75.75C156.528 73.5833 156.57 71.5 156.57 69.5C156.57 67.4167 156.57 65.2083 156.57 62.875V41.375C156.57 38.5417 156.528 35.5 156.445 32.25C156.445 28.9167 156.403 25.75 156.32 22.75C156.32 19.6667 156.278 17 156.195 14.75C156.195 12.5 156.195 11 156.195 10.25L146.945 9.125L146.695 5.125L164.32 0L166.695 1.75C166.612 5.25 166.528 8.75 166.445 12.25C166.362 15.75 166.278 19.7917 166.195 24.375C166.112 28.9583 166.028 34.625 165.945 41.375L166.32 41.5C168.32 38.6667 170.862 36.375 173.945 34.625C177.112 32.875 180.487 32 184.07 32C188.237 32 192.07 33 195.57 35C199.07 37 201.862 39.9167 203.945 43.75C206.112 47.5833 207.195 52.2083 207.195 57.625C207.195 63.5417 205.778 68.7917 202.945 73.375C200.195 77.875 196.487 81.4167 191.82 84C187.153 86.5 181.987 87.75 176.32 87.75C172.737 87.75 169.195 87.375 165.695 86.625C162.195 85.7917 159.07 84.7083 156.32 83.375ZM179.07 81.375C183.987 81.375 188.028 79.5 191.195 75.75C194.445 72 196.112 66.7083 196.195 59.875C196.362 53.2083 194.778 48.2917 191.445 45.125C188.195 41.875 184.237 40.25 179.57 40.25C177.07 40.25 174.612 40.8333 172.195 42C169.862 43.0833 167.82 44.7917 166.07 47.125V77.5C167.737 78.6667 169.612 79.625 171.695 80.375C173.862 81.0417 176.32 81.375 179.07 81.375ZM213.135 86.75L212.885 82.125L221.01 80.375C221.177 79.5417 221.302 78.1667 221.385 76.25C221.468 74.3333 221.51 71.7917 221.51 68.625C221.593 65.4583 221.635 61.5833 221.635 57V41.375C221.635 38.2083 221.593 34.9583 221.51 31.625C221.51 28.2917 221.468 25.1667 221.385 22.25C221.385 19.25 221.343 16.7083 221.26 14.625C221.26 12.4583 221.218 11.0417 221.135 10.375L211.885 9.125L211.635 5.125L229.51 0L231.885 1.75C231.802 5.25 231.718 8.75 231.635 12.25C231.552 15.75 231.468 19.625 231.385 23.875C231.385 28.125 231.385 33.25 231.385 39.25L231.26 59.375C231.26 64.2917 231.302 68.75 231.385 72.75C231.552 76.6667 231.718 79.2083 231.885 80.375L240.01 82.125L239.76 86.75H213.135ZM271.7 87.75C266.867 87.75 262.492 86.6667 258.575 84.5C254.742 82.3333 251.658 79.25 249.325 75.25C247.075 71.1667 245.95 66.375 245.95 60.875C245.95 54.9583 247.158 49.8333 249.575 45.5C251.992 41.1667 255.158 37.8333 259.075 35.5C262.992 33.0833 267.2 31.9167 271.7 32C278.2 32.0833 283.283 34.25 286.95 38.5C290.617 42.75 292.45 48.75 292.45 56.5V58.75H254.075V53.25H284.2L282.825 54.875V52.25C282.825 47.4167 281.742 43.7083 279.575 41.125C277.408 38.5417 274.45 37.25 270.7 37.25C268.367 37.25 266.117 37.9583 263.95 39.375C261.783 40.7083 260.033 42.7917 258.7 45.625C257.367 48.375 256.7 51.875 256.7 56.125V57.625C256.7 64.4583 258.367 69.7917 261.7 73.625C265.117 77.4583 269.492 79.375 274.825 79.375C277.742 79.375 280.367 78.7917 282.7 77.625C285.033 76.4583 287.283 74.5833 289.45 72L292.575 74.875C290.242 79.2083 287.283 82.4583 283.7 84.625C280.117 86.7083 276.117 87.75 271.7 87.75ZM362.58 87.875C354.997 87.875 348.163 86.5 342.08 83.75C335.997 80.9167 331.163 76.75 327.58 71.25C323.997 65.75 322.205 58.9167 322.205 50.75C322.205 45.5 323.122 40.5833 324.955 36C326.872 31.3333 329.58 27.2083 333.08 23.625C336.663 20.0417 340.997 17.25 346.08 15.25C351.247 13.25 357.122 12.25 363.705 12.25C367.122 12.25 370.788 12.5833 374.705 13.25C378.622 13.9167 381.997 14.875 384.83 16.125L385.58 32.5L380.08 33L376.455 21.875C374.872 20.7083 372.747 19.875 370.08 19.375C367.497 18.875 365.038 18.625 362.705 18.625C356.288 18.625 351.038 20 346.955 22.75C342.872 25.4167 339.872 29 337.955 33.5C336.122 38 335.205 42.9583 335.205 48.375C335.205 55.4583 336.455 61.4583 338.955 66.375C341.538 71.2917 344.997 75.0417 349.33 77.625C353.663 80.125 358.538 81.375 363.955 81.375C366.372 81.375 368.997 81.0417 371.83 80.375C374.663 79.625 377.205 78.4583 379.455 76.875L376.455 83.875V70.75C376.455 68.0833 376.413 65.7083 376.33 63.625C376.247 61.4583 376.122 59.8333 375.955 58.75L367.455 57.375L367.705 52.375H392.08L392.33 57.125L386.83 58.625C386.83 59.0417 386.83 60.0417 386.83 61.625C386.83 63.2083 386.83 65.125 386.83 67.375C386.83 70.2083 386.872 72.6667 386.955 74.75C387.038 76.75 387.122 78.8333 387.205 81C383.955 83.0833 380.038 84.75 375.455 86C370.955 87.25 366.663 87.875 362.58 87.875ZM418.77 87.75C415.437 87.75 412.478 87.0833 409.895 85.75C407.312 84.4167 405.27 82.7083 403.77 80.625C402.353 78.5417 401.645 76.375 401.645 74.125C401.645 71.2917 402.562 68.9583 404.395 67.125C406.228 65.2917 409.228 63.7083 413.395 62.375L432.395 56V49.625C432.395 47.5417 431.77 45.6667 430.52 44C429.27 42.25 427.603 40.875 425.52 39.875C423.437 38.875 421.103 38.375 418.52 38.375C416.437 38.375 415.02 38.8333 414.27 39.75C413.52 40.5833 413.062 42.2917 412.895 44.875L412.645 50.125C409.645 50.7917 407.103 50.7083 405.02 49.875C402.937 48.9583 401.895 47.5 401.895 45.5C401.895 44.0833 402.478 42.6667 403.645 41.25C404.895 39.8333 406.52 38.5 408.52 37.25C410.52 35.9167 412.687 34.7917 415.02 33.875C417.353 32.9583 419.645 32.3333 421.895 32C428.062 32 432.978 33.625 436.645 36.875C440.395 40.125 442.312 44.375 442.395 49.625L442.145 70.625C442.145 72.2083 442.187 73.75 442.27 75.25C442.437 76.75 442.645 77.875 442.895 78.625L450.895 80.125V84L444.77 86.25C443.603 86.6667 442.52 87 441.52 87.25C440.52 87.5833 439.687 87.75 439.02 87.75C436.437 87.75 434.77 86.2917 434.02 83.375L432.645 78.5H434.52C431.77 81.5833 429.103 83.9167 426.52 85.5C424.02 87 421.437 87.75 418.77 87.75ZM422.145 80.375C424.062 80.375 425.853 79.9583 427.52 79.125C429.187 78.2083 430.812 76.8333 432.395 75V61.875L418.395 65.625C416.395 66.125 414.937 66.9167 414.02 68C413.187 69.0833 412.77 70.4583 412.77 72.125C412.77 74.2083 413.687 76.125 415.52 77.875C417.437 79.5417 419.645 80.375 422.145 80.375ZM467.96 84.625L467.71 81H485.335C486.502 81 487.752 80.9583 489.085 80.875C490.418 80.7917 491.752 80.6667 493.085 80.5L496.21 70.125H502.085L499.96 86.875C497.877 86.7917 495.877 86.75 493.96 86.75C492.043 86.75 490.252 86.75 488.585 86.75H467.96C466.293 86.75 464.543 86.75 462.71 86.75C460.877 86.8333 459.127 86.9167 457.46 87V83L489.335 35.125L489.085 38.625H471.835C470.502 38.625 469.168 38.6667 467.835 38.75C466.585 38.8333 465.377 38.9583 464.21 39.125L462.46 48.75H456.71L456.585 32.875C458.668 32.9583 460.627 33 462.46 33C464.377 33 466.127 33 467.71 33H488.71C490.46 33 492.21 33 493.96 33C495.793 32.9167 497.627 32.8333 499.46 32.75V36.75L467.96 84.625ZM533.65 87.75C528.817 87.75 524.442 86.6667 520.525 84.5C516.692 82.3333 513.608 79.25 511.275 75.25C509.025 71.1667 507.9 66.375 507.9 60.875C507.9 54.9583 509.108 49.8333 511.525 45.5C513.942 41.1667 517.108 37.8333 521.025 35.5C524.942 33.0833 529.15 31.9167 533.65 32C540.15 32.0833 545.233 34.25 548.9 38.5C552.567 42.75 554.4 48.75 554.4 56.5V58.75H516.025V53.25H546.15L544.775 54.875V52.25C544.775 47.4167 543.692 43.7083 541.525 41.125C539.358 38.5417 536.4 37.25 532.65 37.25C530.317 37.25 528.067 37.9583 525.9 39.375C523.733 40.7083 521.983 42.7917 520.65 45.625C519.317 48.375 518.65 51.875 518.65 56.125V57.625C518.65 64.4583 520.317 69.7917 523.65 73.625C527.067 77.4583 531.442 79.375 536.775 79.375C539.692 79.375 542.317 78.7917 544.65 77.625C546.983 76.4583 549.233 74.5833 551.4 72L554.525 74.875C552.192 79.2083 549.233 82.4583 545.65 84.625C542.067 86.7083 538.067 87.75 533.65 87.75ZM599.465 79C597.882 81.75 595.715 83.9167 592.965 85.5C590.215 87 587.34 87.75 584.34 87.75C579.257 87.75 575.09 86.2083 571.84 83.125C568.59 80.0417 566.965 75.4167 566.965 69.25L567.34 39.375H558.59V36.75L574.715 22.125H577.09L576.84 36.5L576.715 67.25C576.715 71.5833 577.632 74.7917 579.465 76.875C581.382 78.9583 584.048 80 587.465 80C589.382 80 591.132 79.625 592.715 78.875C594.382 78.125 595.882 77.125 597.215 75.875L599.465 79ZM572.34 39.375V33.125H595.715V39.375H572.34ZM639.28 79C637.697 81.75 635.53 83.9167 632.78 85.5C630.03 87 627.155 87.75 624.155 87.75C619.072 87.75 614.905 86.2083 611.655 83.125C608.405 80.0417 606.78 75.4167 606.78 69.25L607.155 39.375H598.405V36.75L614.53 22.125H616.905L616.655 36.5L616.53 67.25C616.53 71.5833 617.447 74.7917 619.28 76.875C621.197 78.9583 623.863 80 627.28 80C629.197 80 630.947 79.625 632.53 78.875C634.197 78.125 635.697 77.125 637.03 75.875L639.28 79ZM612.155 39.375V33.125H635.53V39.375H612.155ZM666.095 87.75C661.262 87.75 656.887 86.6667 652.97 84.5C649.137 82.3333 646.053 79.25 643.72 75.25C641.47 71.1667 640.345 66.375 640.345 60.875C640.345 54.9583 641.553 49.8333 643.97 45.5C646.387 41.1667 649.553 37.8333 653.47 35.5C657.387 33.0833 661.595 31.9167 666.095 32C672.595 32.0833 677.678 34.25 681.345 38.5C685.012 42.75 686.845 48.75 686.845 56.5V58.75H648.47V53.25H678.595L677.22 54.875V52.25C677.22 47.4167 676.137 43.7083 673.97 41.125C671.803 38.5417 668.845 37.25 665.095 37.25C662.762 37.25 660.512 37.9583 658.345 39.375C656.178 40.7083 654.428 42.7917 653.095 45.625C651.762 48.375 651.095 51.875 651.095 56.125V57.625C651.095 64.4583 652.762 69.7917 656.095 73.625C659.512 77.4583 663.887 79.375 669.22 79.375C672.137 79.375 674.762 78.7917 677.095 77.625C679.428 76.4583 681.678 74.5833 683.845 72L686.97 74.875C684.637 79.2083 681.678 82.4583 678.095 84.625C674.512 86.7083 670.512 87.75 666.095 87.75Z" fill="black"/>
</svg>
